# File created by Blade
# Date/Time:  Thu Jan 22 19:24:27 2015
#---------------------------------------------------------
:version 1.10
:name HOM
:units
  mass 1.0
  length 1.000000
  angle deg
:documentation
     Acclaim Skeleton File
:root
   axis xyz
   order TX TY TZ RX RY RZ
   position 0.000000 0.000000 0.000000
   orientation 0 0 0
:bonedata
   begin
      id 1
      name RightUpLeg_dum
      direction -1.000000 0.000000 0.000000
      length 4.478084
      axis 0.0 0.0 0.0 xyz
   end
   begin
      id 2
      name LeftUpLeg_dum
      direction 1.000000 0.000000 0.000000
      length 4.478084
      axis 0.0 0.0 0.0 xyz
   end
   begin
      id 3
      name Spine_dum
      direction 0.000000 1.000000 0.000000
      length 6.068208
      axis 0.0 0.0 0.0 xyz
   end
   begin
      id 4
      name RightUpLeg
      direction 0.000000 -1.000000 0.000000
      length 16.405774
      axis 0.0 0.0 0.0 xyz
      dof rx ry rz
   end
   begin
      id 5
      name RightLeg
      direction 0.000000 -1.000000 0.000000
      length 14.644143
      axis 0.0 0.0 0.0 xyz
      dof rx ry rz
   end
   begin
      id 6
      name RightFoot
      direction 0.000000 -0.258819 0.965926
      length 5.806150
      axis 15.0 0.0 0.0 xyz
      dof rx ry rz
   end
   begin
      id 7
      name RightToeBase
      direction 0.000000 0.000000 1.000000
      length 2.952750
      axis 0.0 0.0 0.0 xyz
      dof rx ry rz
   end
   begin
      id 8
      name LeftUpLeg
      direction 0.000000 -1.000000 0.000000
      length 16.405774
      axis 0.0 0.0 0.0 xyz
      dof rx ry rz
   end
   begin
      id 9
      name LeftLeg
      direction 0.000000 -1.000000 0.000000
      length 14.644143
      axis 0.0 0.0 0.0 xyz
      dof rx ry rz
   end
   begin
      id 10
      name LeftFoot
      direction 0.000000 -0.258819 0.965926
      length 5.806150
      axis 15.0 0.0 0.0 xyz
      dof rx ry rz
   end
   begin
      id 11
      name LeftToeBase
      direction 0.000000 0.000000 1.000000
      length 2.952750
      axis 0.0 0.0 0.0 xyz
      dof rx ry rz
   end
   begin
      id 12
      name Spine
      direction 0.000000 1.000000 0.000000
      length 0.000000
      axis 0.0 0.0 0.0 xyz
      dof rx ry rz
   end
   begin
      id 13
      name Spine_dum1
      direction 0.000000 1.000000 0.000000
      length 10.013923
      axis 0.0 0.0 0.0 xyz
   end
   begin
      id 14
      name Spine_dum2
      direction 0.000000 1.000000 0.000000
      length 10.013923
      axis 0.0 0.0 0.0 xyz
   end
   begin
      id 15
      name Spine_dum3
      direction 0.000000 1.000000 0.000000
      length 15.777476
      axis 0.0 0.0 0.0 xyz
   end
   begin
      id 16
      name RightShoulder
      direction -1.000000 0.000000 0.000000
      length 7.190220
      axis 0.0 0.0 90.0 xyz
      dof rx ry rz
   end
   begin
      id 17
      name RightArm
      direction -1.000000 0.000000 0.000000
      length 10.177469
      axis 0.0 0.0 90.0 xyz
      dof rx ry rz
   end
   begin
      id 18
      name RightForeArm
      direction -1.000000 0.000000 0.000000
      length 8.392114
      axis 0.0 0.0 90.0 xyz
      dof ry rz rx
   end
   begin
      id 19
      name RightHand
      direction -1.000000 0.000000 0.000000
      length 0.000000
      axis 0.0 0.0 90.0 xyz
      dof rx ry rz
   end
   begin
      id 20
      name RightHand_dum1
      direction -1.000000 0.000000 0.000000
      length 3.937000
      axis 0.0 0.0 90.0 xyz
   end
   begin
      id 21
      name RightHand_dum2
      direction 0.000000 0.000000 0.000000
      length 0.000000
      axis 0.0 0.0 90.0 xyz
   end
   begin
      id 22
      name RightHandThumb1
      direction 0.000000 0.000000 1.000000
      length 3.937000
      axis 0.0 0.0 90.0 xyz
      dof rx rz ry
   end
   begin
      id 23
      name LeftShoulder
      direction 1.000000 0.000000 0.000000
      length 7.190220
      axis 0.0 0.0 -90.0 xyz
      dof rx ry rz
   end
   begin
      id 24
      name LeftArm
      direction 1.000000 0.000000 0.000000
      length 10.177469
      axis 0.0 0.0 -90.0 xyz
      dof rx ry rz
   end
   begin
      id 25
      name LeftForeArm
      direction 1.000000 0.000000 0.000000
      length 8.392114
      axis 0.0 0.0 -90.0 xyz
      dof ry rz rx
   end
   begin
      id 26
      name LeftHand
      direction 1.000000 0.000000 0.000000
      length 0.000000
      axis 0.0 0.0 -90.0 xyz
      dof rx ry rz
   end
   begin
      id 27
      name LeftHand_dum1
      direction 1.000000 0.000000 0.000000
      length 3.937000
      axis 0.0 0.0 -90.0 xyz
   end
   begin
      id 28
      name LeftHand_dum2
      direction 0.000000 0.000000 0.000000
      length 0.000000
      axis 0.0 0.0 -90.0 xyz
   end
   begin
      id 29
      name LeftHandThumb1
      direction 0.000000 0.000000 1.000000
      length 3.937000
      axis 0.0 0.0 -90.0 xyz
      dof rx rz ry
   end
   begin
      id 30
      name Head
      direction 0.000000 1.000000 0.000000
      length 4.527550
      axis 0.0 0.0 0.0 xyz
      dof rx ry rz
   end
:hierarchy
   begin
      root RightUpLeg_dum LeftUpLeg_dum Spine_dum
      RightUpLeg_dum RightUpLeg
      LeftUpLeg_dum LeftUpLeg
      Spine_dum Spine
      RightUpLeg RightLeg
      RightLeg RightFoot
      RightFoot RightToeBase
      LeftUpLeg LeftLeg
      LeftLeg LeftFoot
      LeftFoot LeftToeBase
      Spine Spine_dum1 Spine_dum2 Spine_dum3
      Spine_dum1 RightShoulder
      Spine_dum2 LeftShoulder
      Spine_dum3 Head
      RightShoulder RightArm
      RightArm RightForeArm
      RightForeArm RightHand
      RightHand RightHand_dum1 RightHand_dum2
      RightHand_dum2 RightHandThumb1
      LeftShoulder LeftArm
      LeftArm LeftForeArm
      LeftForeArm LeftHand
      LeftHand LeftHand_dum1 LeftHand_dum2
      LeftHand_dum2 LeftHandThumb1
   end

# File created by Blade
# Date/Time:  Thu Jan 22 19:24:19 2015
# Frame Rate: 120.000 fps
#------------------------------------------------------
:FULLY-SPECIFIED
:DEGREES
1
root -2.010063 32.805210 -1.673165 9.803707 -3.202089 1.712720
RightUpLeg -0.774756 -8.125263 -5.921125
RightLeg -3.087089 -0.000000 0.000000
RightFoot -10.826918 -4.638110 6.987829
RightToeBase 6.605056 -0.000000 -0.000000
LeftUpLeg -1.135922 9.825974 7.346402
LeftLeg -0.944314 -0.000000 0.000000
LeftFoot -9.949758 3.684940 -22.922797
LeftToeBase 8.926711 -0.000000 -0.000000
Spine -10.287981 -1.137694 -0.735112
RightShoulder -18.956321 -9.152750 -30.428344
RightArm 18.213073 31.299722 35.214322
RightForeArm -14.973281 -0.000000 7.822789
RightHand 10.648669 -0.000000 10.650514
RightHandThumb1 -24.326973 -0.000000 -32.862282
LeftShoulder -23.781845 3.966023 32.492927
LeftArm 14.614414 -26.367761 -30.189204
LeftForeArm 28.669237 -0.000000 -0.500832
LeftHand -1.742648 -0.000000 -10.645635
LeftHandThumb1 -26.253704 0.000000 33.147579
Head -7.933807 1.843765 0.955606
2
root -2.016574 32.805734 -1.680109 9.796646 -3.218220 1.692097
RightUpLeg -0.793416 -8.091100 -5.891860
RightLeg -3.068817 -0.000000 0.000000
RightFoot -10.819974 -4.614407 6.961982
RightToeBase 6.727392 -0.000000 -0.000000
LeftUpLeg -1.140744 9.890901 7.373823
LeftLeg -0.930605 -0.000000 0.000000
LeftFoot -9.940925 3.651058 -22.884400
LeftToeBase 8.969710 -0.000000 -0.000000
Spine -10.284435 -1.112055 -0.763896
RightShoulder -18.967122 -9.203805 -30.396708
RightArm 18.247621 31.329702 35.279128
RightForeArm -14.908091 -0.000000 7.818994
RightHand 10.686249 -0.000000 10.599828
RightHandThumb1 -24.326973 -0.000000 -32.862282
LeftShoulder -23.780887 4.005215 32.499639
LeftArm 14.636401 -26.374278 -30.199655
LeftForeArm 28.701325 -0.000000 -0.468572
LeftHand -1.723538 -0.000000 -10.635048
LeftHandThumb1 -26.253704 0.000000 33.147579
Head -7.860562 1.802763 0.943322
3
root -2.022991 32.806216 -1.687360 9.785989 -3.222749 1.670893
RightUpLeg -0.809027 -8.074469 -5.861235
RightLeg -3.039626 -0.000000 0.000000
RightFoot -10.818834 -4.619083 6.962773
RightToeBase 6.714325 -0.000000 -0.000000
LeftUpLeg -1.149695 9.955288 7.401492
LeftLeg -0.914092 -0.000000 0.000000
LeftFoot -9.928175 3.616939 -22.869764
LeftToeBase 8.957823 -0.000000 -0.000000
Spine -10.273745 -1.096284 -0.788482
RightShoulder -18.971726 -9.244355 -30.363782
RightArm 18.261624 31.325002 35.313034
RightForeArm -14.884751 0.000000 7.831996
RightHand 10.686360 -0.000000 10.565612
RightHandThumb1 -24.326973 -0.000000 -32.862282
LeftShoulder -23.773882 4.038160 32.496978
LeftArm 14.650881 -26.338396 -30.187106
LeftForeArm 28.709830 -0.000000 -0.434296
LeftHand -1.755771 -0.000000 -10.612254
LeftHandThumb1 -26.253704 0.000000 33.147579
Head -7.798792 1.772930 0.944974
4
root -2.027604 32.806743 -1.694674 9.773137 -3.235603 1.654580
RightUpLeg -0.823878 -8.050492 -5.840401
RightLeg -3.009558 -0.000000 0.000000
RightFoot -10.825051 -4.637727 6.940417
RightToeBase 6.549980 -0.000000 -0.000000
LeftUpLeg -1.150891 10.002305 7.422166
LeftLeg -0.902708 -0.000000 0.000000
LeftFoot -9.926219 3.599657 -22.857502
LeftToeBase 9.018705 -0.000000 -0.000000
Spine -10.258055 -1.071753 -0.813543
RightShoulder -18.989865 -9.300753 -30.333045
RightArm 18.307653 31.336045 35.369835
RightForeArm -14.880569 -0.000000 7.835500
RightHand 10.687347 -0.000000 10.533735
RightHandThumb1 -24.326973 -0.000000 -32.862282
LeftShoulder -23.772817 4.086731 32.485994
LeftArm 14.684176 -26.381905 -30.209124
LeftForeArm 28.854255 -0.000000 -0.391209
LeftHand -1.766050 -0.000000 -10.567017
LeftHandThumb1 -26.253704 0.000000 33.147579
Head -7.745639 1.752195 0.941153
